<svg width="1200" height="720" viewBox="0 0 1200 720" fill="none" xmlns="http://www.w3.org/2000/svg">
  <rect x="40" y="40" width="1120" height="640" rx="32" fill="url(#paint0_linear)"/>
  <rect x="96" y="100" width="260" height="36" rx="18" fill="#0F172A" fill-opacity="0.8"/>
  <rect x="96" y="176" width="462" height="150" rx="30" fill="#0F172A"/>
  <rect x="96" y="356" width="220" height="124" rx="26" fill="white" fill-opacity="0.82"/>
  <rect x="338" y="356" width="220" height="124" rx="26" fill="white" fill-opacity="0.7"/>
  <rect x="96" y="508" width="462" height="112" rx="30" fill="white" fill-opacity="0.78"/>
  <rect x="626" y="176" width="472" height="444" rx="32" fill="white" fill-opacity="0.8"/>
  <path d="M692 504L786 382L852 434L936 300L1032 370" stroke="#0F172A" stroke-width="16" stroke-linecap="round" stroke-linejoin="round"/>
  <circle cx="692" cy="504" r="12" fill="#FB923C"/>
  <circle cx="786" cy="382" r="12" fill="#FB923C"/>
  <circle cx="852" cy="434" r="12" fill="#FB923C"/>
  <circle cx="936" cy="300" r="12" fill="#FB923C"/>
  <circle cx="1032" cy="370" r="12" fill="#FB923C"/>
  <text x="102" y="124" fill="white" font-family="Arial, sans-serif" font-size="18" font-weight="700">PULSE DASHBOARD</text>
  <text x="128" y="250" fill="white" font-family="Arial, sans-serif" font-size="56" font-weight="700">Analytics with</text>
  <text x="128" y="306" fill="white" font-family="Arial, sans-serif" font-size="56" font-weight="700">calm hierarchy</text>
  <defs>
    <linearGradient id="paint0_linear" x1="88" y1="74" x2="1098" y2="668" gradientUnits="userSpaceOnUse">
      <stop stop-color="#E0F2FE"/>
      <stop offset="1" stop-color="#FFF7ED"/>
    </linearGradient>
  </defs>
</svg>
