<svg width="1200" height="720" viewBox="0 0 1200 720" fill="none" xmlns="http://www.w3.org/2000/svg">
  <rect x="36" y="36" width="1128" height="648" rx="32" fill="url(#paint0_linear)"/>
  <circle cx="884" cy="224" r="164" fill="#FB923C" fill-opacity="0.28"/>
  <circle cx="320" cy="520" r="210" fill="#38BDF8" fill-opacity="0.18"/>
  <rect x="98" y="106" width="258" height="34" rx="17" fill="#0F172A" fill-opacity="0.75"/>
  <rect x="98" y="182" width="420" height="128" rx="24" fill="white" fill-opacity="0.84"/>
  <rect x="98" y="336" width="308" height="24" rx="12" fill="#334155" fill-opacity="0.25"/>
  <rect x="98" y="380" width="268" height="24" rx="12" fill="#334155" fill-opacity="0.18"/>
  <rect x="98" y="460" width="178" height="56" rx="28" fill="#0F172A"/>
  <rect x="640" y="154" width="414" height="380" rx="34" fill="#0F172A"/>
  <rect x="676" y="192" width="340" height="198" rx="24" fill="#FFF7ED"/>
  <rect x="676" y="416" width="156" height="26" rx="13" fill="white" fill-opacity="0.78"/>
  <rect x="676" y="456" width="208" height="20" rx="10" fill="white" fill-opacity="0.48"/>
  <text x="102" y="130" fill="white" font-family="Arial, sans-serif" font-size="18" font-weight="700">ORBIT STOREFRONT</text>
  <text x="128" y="260" fill="#0F172A" font-family="Arial, sans-serif" font-size="62" font-weight="700">Product-first</text>
  <text x="128" y="322" fill="#0F172A" font-family="Arial, sans-serif" font-size="62" font-weight="700">shopping UI</text>
  <defs>
    <linearGradient id="paint0_linear" x1="98" y1="74" x2="1046" y2="642" gradientUnits="userSpaceOnUse">
      <stop stop-color="#FFF7ED"/>
      <stop offset="1" stop-color="#E0F2FE"/>
    </linearGradient>
  </defs>
</svg>
